<?xml version="1.0" ?><!DOCTYPE svg  PUBLIC '-//W3C//DTD SVG 1.1//EN'  'http://www.w3.org/Graphics/SVG/1.1/DTD/svg11.dtd'><svg xmlns="http://www.w3.org/2000/svg" xmlns:xlink="http://www.w3.org/1999/xlink">
<symbol viewBox="0 0 60 60" id="letter" xmlns="http://www.w3.org/2000/svg">
	
</symbol><symbol viewBox="0 0 511.626 511.627" id="new" xmlns="http://www.w3.org/2000/svg"><path d="M18.842 128.48C6.28 141.043 0 156.08 0 173.588v237.537c0 17.515 6.28 32.552 18.842 45.111 12.563 12.565 27.6 18.842 45.111 18.842h18.271V109.634H63.953c-17.515 0-32.551 6.283-45.111 18.846zM365.446 63.955c0-7.614-2.663-14.084-7.994-19.414-5.325-5.33-11.8-7.993-19.411-7.993H173.589c-7.612 0-14.083 2.663-19.414 7.993-5.33 5.327-7.994 11.799-7.994 19.414v45.679h-36.545v365.444h292.359V109.634h-36.549V63.955zm-36.542 45.679H182.725V73.091h146.179v36.543zM492.785 128.48c-12.563-12.562-27.601-18.846-45.111-18.846H429.4v365.444h18.274c17.511 0 32.548-6.276 45.111-18.842 12.559-12.56 18.842-27.597 18.842-45.111V173.588c-.001-17.508-6.284-32.545-18.842-45.108z"/></symbol><symbol viewBox="0 0 511.626 511.627" id="new2" xmlns="http://www.w3.org/2000/svg"><path d="M18.842 128.48C6.28 141.043 0 156.08 0 173.588v237.537c0 17.515 6.28 32.552 18.842 45.111 12.563 12.565 27.6 18.842 45.111 18.842h18.271V109.634H63.953c-17.515 0-32.551 6.283-45.111 18.846zM365.446 63.955c0-7.614-2.663-14.084-7.994-19.414-5.325-5.33-11.8-7.993-19.411-7.993H173.589c-7.612 0-14.083 2.663-19.414 7.993-5.33 5.327-7.994 11.799-7.994 19.414v45.679h-36.545v365.444h292.359V109.634h-36.549V63.955zm-36.542 45.679H182.725V73.091h146.179v36.543zM492.785 128.48c-12.563-12.562-27.601-18.846-45.111-18.846H429.4v365.444h18.274c17.511 0 32.548-6.276 45.111-18.842 12.559-12.56 18.842-27.597 18.842-45.111V173.588c-.001-17.508-6.284-32.545-18.842-45.108z"/></symbol><symbol viewBox="0 0 511.626 511.627" id="new2_-_копия" xmlns="http://www.w3.org/2000/svg"><path d="M18.842 128.48C6.28 141.043 0 156.08 0 173.588v237.537c0 17.515 6.28 32.552 18.842 45.111 12.563 12.565 27.6 18.842 45.111 18.842h18.271V109.634H63.953c-17.515 0-32.551 6.283-45.111 18.846zM365.446 63.955c0-7.614-2.663-14.084-7.994-19.414-5.325-5.33-11.8-7.993-19.411-7.993H173.589c-7.612 0-14.083 2.663-19.414 7.993-5.33 5.327-7.994 11.799-7.994 19.414v45.679h-36.545v365.444h292.359V109.634h-36.549V63.955zm-36.542 45.679H182.725V73.091h146.179v36.543zM492.785 128.48c-12.563-12.562-27.601-18.846-45.111-18.846H429.4v365.444h18.274c17.511 0 32.548-6.276 45.111-18.842 12.559-12.56 18.842-27.597 18.842-45.111V173.588c-.001-17.508-6.284-32.545-18.842-45.108z"/></symbol><symbol viewBox="0 0 612.08 612.08" id="search" xmlns="http://www.w3.org/2000/svg"><path d="M237.927 0C106.555 0 .035 106.52.035 237.893s106.52 237.893 237.893 237.893c50.518 0 97.368-15.757 135.879-42.597l.028-.028 176.432 176.433c3.274 3.274 8.48 3.358 11.839 0l47.551-47.551c3.274-3.274 3.106-8.703-.028-11.838L433.223 373.8c26.84-38.539 42.597-85.39 42.597-135.907C475.82 106.52 369.3 0 237.927 0zm0 419.811c-100.475 0-181.918-81.443-181.918-181.918S137.453 55.975 237.927 55.975s181.918 81.443 181.918 181.918-81.443 181.918-181.918 181.918z"/></symbol><symbol viewBox="0 0 511.626 511.627" id="suitcase1" xmlns="http://www.w3.org/2000/svg"><path d="M18.842 128.48C6.28 141.043 0 156.08 0 173.588v237.537c0 17.515 6.28 32.552 18.842 45.111 12.563 12.565 27.6 18.842 45.111 18.842h18.271V109.634H63.953c-17.515 0-32.551 6.283-45.111 18.846zM365.446 63.955c0-7.614-2.663-14.084-7.994-19.414-5.325-5.33-11.8-7.993-19.411-7.993H173.589c-7.612 0-14.083 2.663-19.414 7.993-5.33 5.327-7.994 11.799-7.994 19.414v45.679h-36.545v365.444h292.359V109.634h-36.549V63.955zm-36.542 45.679H182.725V73.091h146.179v36.543zM492.785 128.48c-12.563-12.562-27.601-18.846-45.111-18.846H429.4v365.444h18.274c17.511 0 32.548-6.276 45.111-18.842 12.559-12.56 18.842-27.597 18.842-45.111V173.588c-.001-17.508-6.284-32.545-18.842-45.108z"/></symbol></svg>